<?xml version="1.0" encoding="UTF-8" standalone="no"?>
<svg
   width="48"
   height="48"
   version="1.1"
   id="svg1"
   sodipodi:docname="selection-checked-symbolic.svg"
   inkscape:version="1.3.2 (091e20ef0f, 2023-11-25)"
   xmlns:inkscape="http://www.inkscape.org/namespaces/inkscape"
   xmlns:sodipodi="http://sodipodi.sourceforge.net/DTD/sodipodi-0.dtd"
   xmlns="http://www.w3.org/2000/svg"
   xmlns:svg="http://www.w3.org/2000/svg">
  <defs
     id="defs1" />
  <sodipodi:namedview
     id="namedview1"
     pagecolor="#ffffff"
     bordercolor="#000000"
     borderopacity="0.25"
     inkscape:showpageshadow="2"
     inkscape:pageopacity="0.0"
     inkscape:pagecheckerboard="0"
     inkscape:deskcolor="#d1d1d1"
     inkscape:zoom="3.2777778"
     inkscape:cx="36"
     inkscape:cy="35.847458"
     inkscape:window-width="1920"
     inkscape:window-height="1000"
     inkscape:window-x="0"
     inkscape:window-y="44"
     inkscape:window-maximized="1"
     inkscape:current-layer="svg1" />
  <path
     d="M 24,0 C 10.745,0 0,10.745 0,24 0,37.255 10.745,48 24,48 37.255,48 48,37.255 48,24 48,10.745 37.255,0 24,0 m 10.141,15.855 c 0.511,0 1.022,0.198 1.414,0.59 a 1.995,1.995 0 0 1 0,2.828 L 22.828,32 A 1.995,1.995 0 0 1 20,32 l -5.656,-5.656 a 1.995,1.995 0 0 1 0,-2.828 1.995,1.995 0 0 1 2.828,0 l 4.242,4.242 11.312,-11.312 c 0.392,-0.392 0.903,-0.59 1.414,-0.59 z"
     id="path1" />
</svg>
