<svg width="1920" height="1080" version="1.1" viewBox="0 0 1920 1080" xmlns="http://www.w3.org/2000/svg">
 <defs>
  <clipPath id="clipPath10">
   <rect x="-876.43" y="-5.5099" width="508.01" height="285.76" fill="#ead9c6" stroke-linecap="round" stroke-linejoin="round" stroke-width=".52919"/>
  </clipPath>
 </defs>
 <g id="Orianin" transform="matrix(3.7795 0 0 3.7795 3312.4 20.824)" clip-path="url(#clipPath10)">
  <rect x="-876.43" y="-5.5099" width="508.01" height="285.76" fill="#ead9c6" stroke-linecap="round" stroke-linejoin="round" stroke-width=".52919"/>
  <path d="m-885.53 134.77s50.023-27.699 97.565-95.498 53.743-79.788 53.743-79.788l25.62 16.544-30.402 132.72-64.896 128.04-74.835 68.989-12.278-29.817z" fill="#d89e70"/>
  <path d="m-901.5 294.69s45.813-44.96 63.955-75.848c18.886-32.156 45.854-130.77 67.27-185.52 15.394-39.355 26.511-58.596 26.511-58.596l212.95 1.2927s-5.7878 49.609-45.475 126.5-92.604 128.05-148 177.71c-55.397 49.662-177.21 14.454-177.21 14.454z" fill="#e2904b"/>
  <path d="m-844.97 295.87s31.023-39.942 47.471-78.081 28.671-133.49 50.087-188.24c15.394-39.355 37.638-55.897 37.638-55.897l178.96 2.3617s-5.7878 49.609-45.475 126.5-92.604 128.05-148 177.71c-55.397 49.662-71.527 22.108-71.527 22.108z" fill="#ea9a53"/>
  <path d="m-762.53 283.85s68.828-41.589 108.52-97.813c39.688-56.224 78.962-146.35 88.883-200.5 9.9219-54.157 119.04-7.1627 119.04-7.1627l-230.35 322.73z" fill="#b2311d"/>
  <path d="m-728.51 283.76s64.483-34.198 103.93-75.644c57.975-60.907 117.98-141.47 151.6-205.49 33.617-64.019 49.111-8.1409 49.111-8.1409l-90.543 195.05-99.188 112.8z" fill="#a22d1b"/>
  <path d="m-441.53-22.325s-35.554 76.069-80.203 155.14c-44.649 79.066-104.18 159.06-132.29 179.32-27.35 19.708 100.46 10.335 100.46 10.335l197.61-206.71-1.2403-131.05z" fill="#d2543c" stroke-linecap="round" stroke-linejoin="round" stroke-width=".52918"/>
  <path d="m-632.53 288.57s93.846-111.21 140.98-145.52c47.13-34.314 96.327-44.236 122.79-44.236s16.95 196.37 16.95 196.37z" fill="#be39c5" stroke-linecap="round" stroke-linejoin="round" stroke-width=".52918"/>
  <path d="m-547.37 292.29s47.543-108.32 85.164-144.28c37.621-35.967 62.84-51.677 97.98-49.197 35.141 2.4805 1.6537 190.59 1.6537 190.59z" fill="#7621a6" stroke-linecap="round" stroke-linejoin="round" stroke-width=".52918"/>
  <path d="m-502.93 287.95s34.727-38.035 79.17-53.331c44.442-15.296 76.069 4.1342 76.069 4.1342l-14.883 51.884z" fill="#2f6cdb" stroke-linecap="round" stroke-linejoin="round" stroke-width=".52918"/>
 </g>
</svg>
